<?xml version="1.0" encoding="utf-8"?>
<!-- Generator: Adobe Illustrator 19.2.1, SVG Export Plug-In . SVG Version: 6.00 Build 0)  -->
<svg version="1.1" id="Layer_1" xmlns="http://www.w3.org/2000/svg" xmlns:xlink="http://www.w3.org/1999/xlink" x="0px" y="0px"
	 viewBox="0 0 1108.1 123.1" style="enable-background:new 0 0 1108.1 123.1;" xml:space="preserve">
<style type="text/css">
	.st0{fill:none;}
	.st1{opacity:0.54;}
	.st2{fill:#4285F4;}
	.st3{fill:#EA4335;}
	.st4{fill:#FBBC05;}
	.st5{fill:#34A853;}
</style>
<g>
	<g>
		<rect class="st0" width="1108.1" height="123.1"/>
	</g>
	<g class="st1">
		<g>
			<path d="M431.1,10.3h12l31.3,83h-11.8l-8-22.5h-34.9l-8.1,22.5h-11.8L431.1,10.3z M450.9,60.8l-13.6-37.4h-0.5l-13.6,37.4H450.9z
				"/>
		</g>
		<g>
			<path d="M491.2,85.3h-0.5l0.5,7.9v25h-10.7V36.4h10.2v7.9h0.5c3.2-5.2,10.3-9.7,19.4-9.7c14.4,0,27,12.9,27,30.2
				c0,17.4-12.6,30.2-27,30.2C501.5,95.1,494.5,90.6,491.2,85.3z M526.9,64.8c0-12.7-8.6-20.5-18.1-20.5c-9.5,0-18.1,7.5-18.1,20.5
				s8.6,20.5,18.1,20.5C518.3,85.3,526.9,77.6,526.9,64.8z"/>
		</g>
		<g>
			<path d="M555.1,85.3h-0.5l0.5,7.9v25h-10.7V36.4h10.2v7.9h0.5c3.2-5.2,10.3-9.7,19.4-9.7c14.4,0,27,12.9,27,30.2
				c0,17.4-12.6,30.2-27,30.2C565.4,95.1,558.3,90.6,555.1,85.3z M590.7,64.8c0-12.7-8.6-20.5-18.1-20.5s-18.1,7.5-18.1,20.5
				s8.6,20.5,18.1,20.5C582.2,85.3,590.7,77.6,590.7,64.8z"/>
		</g>
		<g>
			<path d="M605.7,78.9l9.5-3.9c3,7.2,8.6,10.7,15.4,10.7c6.6,0,11.4-3.2,11.4-8c0-2.9-1.7-6-7.8-7.5l-11.5-2.8
				c-5.2-1.3-15.2-5.8-15.2-15.8c0-10.3,10.7-16.9,22.5-16.9c9.8,0,18.4,4.5,21.9,13.2l-9.3,3.8c-2.2-5.3-7.4-7.5-13-7.5
				c-6,0-11.2,2.7-11.2,7.3c0,3.6,3,5.6,7.5,6.6l11.2,2.7c11.2,2.7,15.6,9.6,15.6,16.6c0,10.1-9,17.8-22.4,17.8
				C616.8,95.1,609.1,87,605.7,78.9z"/>
		</g>
		<g>
			<path d="M723.1,11.3l-3.7,9.2c-1.4-0.7-2.9-0.9-4.9-0.9c-5.3,0-9.5,3.1-9.5,9.7v7.2h14.8v9.7H705v47h-10.7v-47h-10.7v-9.7h10.7
				V29c0-11.6,8.2-19.1,20.2-19.1C718.1,9.8,720.6,10.3,723.1,11.3z"/>
		</g>
		<g>
			<path d="M781.1,64.8c0,17.3-12.2,30.2-29.2,30.2s-29.2-13-29.2-30.2c0-17.3,12.2-30.2,29.2-30.2C769,34.6,781.1,47.6,781.1,64.8z
				 M770.5,64.8c0-13-9-20.5-18.5-20.5s-18.5,7.5-18.5,20.5s9,20.5,18.5,20.5C761.4,85.3,770.5,77.8,770.5,64.8z"/>
		</g>
		<g>
			<path d="M789.7,93.2V36.4h10.2v9.3h0.5c2.3-6.5,10.5-10.7,16.5-10.7c3.5,0,5.8,0.5,8,1.4l-4.1,10c-1.5-0.6-3.4-0.8-5.7-0.8
				c-7.3,0-14.7,6.1-14.7,16.6v31H789.7z"/>
		</g>
		<g>
			<path d="M928.2,93.2h-10.9l-17.8-54.7H899l-17.9,54.7h-10.9l-23.1-83h11.1l17.5,65.2h0.5l18-54.1h10l18,54.1h0.5l16.6-65.2h11.1
				L928.2,93.2z"/>
		</g>
		<g>
			<path d="M1006.3,64.8c0,17.3-12.2,30.2-29.2,30.2s-29.2-13-29.2-30.2c0-17.3,12.2-30.2,29.2-30.2S1006.3,47.6,1006.3,64.8z
				 M995.6,64.8c0-13-9-20.5-18.5-20.5s-18.5,7.5-18.5,20.5s9,20.5,18.5,20.5S995.6,77.8,995.6,64.8z"/>
		</g>
		<g>
			<path d="M1014.9,93.2V36.4h10.2v9.3h0.5c2.3-6.5,10.5-10.7,16.5-10.7c3.5,0,5.8,0.5,8,1.4l-4.1,10c-1.5-0.6-3.4-0.8-5.7-0.8
				c-7.3,0-14.7,6.1-14.7,16.6v31H1014.9z"/>
		</g>
		<g>
			<path d="M1067.6,61l24.1-24.6h14.1v0.5L1083.7,59l23.2,33.7v0.5H1094l-17.8-26.8l-8.6,8.6v18.2h-10.7v-83h10.7L1067.6,61
				L1067.6,61z"/>
		</g>
	</g>
	<g>
		<path class="st2" d="M0.7,47.6c0-26.2,22-47.5,48.2-47.5c14.5,0,24.8,5.7,32.6,13.1l-9.2,9.2c-5.6-5.2-13.1-9.3-23.4-9.3
			c-19.1,0-34.1,15.4-34.1,34.5s14.9,34.5,34.1,34.5c12.4,0,19.5-5,24-9.5c3.7-3.7,6.1-9,7.1-16.3H48.9v-13h43.7
			c0.5,2.3,0.7,5.1,0.7,8.1c0,9.7-2.7,21.8-11.2,30.4c-8.3,8.7-19,13.3-33.1,13.3C22.7,95.1,0.7,73.8,0.7,47.6z"/>
		<path class="st3" d="M128.6,33.9c-16.9,0-30.7,12.9-30.7,30.6c0,17.6,13.8,30.6,30.7,30.6s30.7-13,30.7-30.6
			C159.3,46.8,145.5,33.9,128.6,33.9z M128.6,83c-9.3,0-17.3-7.6-17.3-18.5c0-11,8-18.5,17.3-18.5c9.3,0,17.3,7.5,17.3,18.5
			C145.9,75.4,137.9,83,128.6,83z"/>
		<path class="st4" d="M195.6,33.9c-16.9,0-30.7,12.9-30.7,30.6c0,17.6,13.8,30.6,30.7,30.6s30.7-13,30.7-30.6
			C226.3,46.8,212.5,33.9,195.6,33.9z M195.6,83c-9.3,0-17.3-7.6-17.3-18.5c0-11,8-18.5,17.3-18.5c9.3,0,17.3,7.5,17.3,18.5
			C212.9,75.4,204.9,83,195.6,83z"/>
		<path class="st2" d="M277.8,35.7v5h-0.5c-3-3.6-8.8-6.8-16.1-6.8c-15.3,0-29.3,13.4-29.3,30.7c0,17.2,14,30.5,29.3,30.5
			c7.3,0,13.1-3.2,16.1-7h0.5v4.4c0,11.7-6.3,18-16.3,18c-8.2,0-13.3-5.9-15.4-10.9l-11.7,4.9c3.4,8.1,12.3,18.1,27.1,18.1
			c15.8,0,29.1-9.3,29.1-31.9V35.8h-12.8V35.7z M262.4,83c-9.3,0-17-7.8-17-18.4c0-10.8,7.8-18.7,17-18.7s16.3,7.9,16.3,18.7
			C278.8,75.3,271.6,83,262.4,83z"/>
		<rect x="299.8" y="3.3" class="st5" width="13.4" height="89.9"/>
		<path class="st3" d="M350.1,83c-6.8,0-11.7-3.1-14.8-9.3l40.9-16.9l-1.4-3.5c-2.5-6.8-10.3-19.5-26.2-19.5
			c-15.8,0-28.9,12.4-28.9,30.6c0,17.2,13,30.6,30.4,30.6c14,0,22.1-8.6,25.5-13.6l-10.4-7C361.7,79.7,357,83,350.1,83z M349.1,45.7
			c5.3,0,9.9,2.7,11.4,6.5l-27.4,11.4C332.8,51.7,342.3,45.7,349.1,45.7z"/>
		<rect class="st0" width="376.6" height="123.1"/>
	</g>
</g>
</svg>
